<?xml version="1.0" standalone="no"?><!DOCTYPE svg PUBLIC "-//W3C//DTD SVG 1.1//EN" "http://www.w3.org/Graphics/SVG/1.1/DTD/svg11.dtd"><svg t="1749214949258" class="icon" viewBox="0 0 1024 1024" version="1.1" xmlns="http://www.w3.org/2000/svg" p-id="12764" width="64" height="64" xmlns:xlink="http://www.w3.org/1999/xlink"><path d="M484.75 66.298C291.44 85.837 150.384 260.214 150.384 454.509v429.539c0 41.154 33.362 74.517 74.517 74.517 41.154 0 74.517-33.362 74.517-74.517 0-41.154 33.362-74.517 74.517-74.517 41.154 0 74.517 33.362 74.517 74.517 0 41.154 33.362 74.517 74.517 74.517 41.154 0 74.517-33.362 74.517-74.517 0-41.154 33.362-74.517 74.517-74.517 41.154 0 74.517 33.362 74.517 74.517 0 41.154 33.362 74.517 74.517 74.517 41.154 0 74.517-33.362 74.517-74.517V436.947c-0.001-217.53-188.931-393.076-410.804-370.649z" fill="#C2D0D3" p-id="12765"></path><path d="M373.935 436.947m-74.517 0a74.517 74.517 0 1 0 149.034 0 74.517 74.517 0 1 0-149.034 0Z" fill="#FFFFFF" p-id="12766"></path><path d="M672.002 436.947m-74.517 0a74.517 74.517 0 1 0 149.034 0 74.517 74.517 0 1 0-149.034 0Z" fill="#FFFFFF" p-id="12767"></path><path d="M448.452 623.239a74.517 37.258 0 1 0 149.034 0 74.517 37.258 0 1 0-149.034 0Z" fill="#FFFFFF" p-id="12768"></path><path d="M241.961 73.262c4.365-7.483 15.177-7.483 19.542 0l59.736 102.405 59.584 102.144c4.399 7.541-1.041 17.012-9.771 17.012h-238.64c-8.731 0-14.17-9.471-9.771-17.012l59.584-102.144 59.736-102.405z" fill="#F73F4C" p-id="12769"></path><path d="M251.732 126.506v95.324" fill="#EFEFEF" p-id="12770"></path><path d="M251.742 228.822c-3.857 0-7.003-3.146-7.003-7.003v-95.302c0-3.857 3.146-7.003 7.003-7.003s7.003 3.146 7.003 7.003v95.302c-0.001 3.857-3.146 7.003-7.003 7.003z" fill="#FFFFFF" p-id="12771"></path><path d="M251.732 247.336m-9.917 0a9.917 9.917 0 1 0 19.834 0 9.917 9.917 0 1 0-19.834 0Z" fill="#FFFFFF" p-id="12772"></path></svg>